<?xml version="1.0" encoding="utf-8"?><!-- Uploaded to: SVG Repo, www.svgrepo.com, Generator: SVG Repo Mixer Tools -->
<svg width="800px" height="800px" viewBox="0 0 64 64" fill="none" xmlns="http://www.w3.org/2000/svg">
<path d="M10.0954 18.1892C10.2251 15.9585 11.9923 14.2726 14.1987 13.9192C16.3772 13.5703 19.105 13.0602 21.2305 12.4239C23.9034 11.6238 27.5286 10.0539 29.8162 9.01576C31.2034 8.38626 32.7966 8.38626 34.1838 9.01576C36.4714 10.0539 40.0966 11.6238 42.7695 12.4239C44.895 13.0602 47.6228 13.5703 49.8013 13.9192C52.0077 14.2726 53.7749 15.9585 53.9046 18.1892C54.418 27.02 53.5497 48.9163 33.3725 55.5791C32.4916 55.87 31.5084 55.87 30.6275 55.5791C10.4503 48.9163 9.58202 27.02 10.0954 18.1892Z" fill="#0F277F"/>
<path d="M14 19.919V23.2029C14 24.413 15.7485 24.5828 15.9813 23.3953L16.3545 21.4922C16.4482 21.0139 16.7134 20.5864 17.1002 20.2898L19.0415 18.8015C19.9438 18.1098 19.1758 16.6885 18.1027 17.064L15.3393 18.0312C14.5371 18.312 14 19.0691 14 19.919Z" fill="white"/>
<path d="M27.0729 31.6C28.2329 31.84 29.1196 32.32 29.7329 33.04C30.3596 33.7467 30.6729 34.6067 30.6729 35.62C30.6729 36.4467 30.4463 37.2133 29.9929 37.92C29.5529 38.6267 28.8729 39.2 27.9529 39.64C27.0463 40.0667 25.9196 40.28 24.5729 40.28C23.5863 40.28 22.6063 40.16 21.6329 39.92C20.6729 39.68 19.8396 39.34 19.1329 38.9L20.5729 35.92C21.1196 36.2933 21.7329 36.58 22.4129 36.78C23.1063 36.98 23.7863 37.08 24.4529 37.08C25.1329 37.08 25.6729 36.9533 26.0729 36.7C26.4729 36.4467 26.6729 36.0867 26.6729 35.62C26.6729 34.7133 25.9596 34.26 24.5329 34.26H22.8729V31.76L25.3729 29.06H19.8529V26H29.9729V28.48L27.0729 31.6Z" fill="#FDAFA4"/>
<path d="M32.6637 26H39.2837C40.817 26 42.177 26.2867 43.3637 26.86C44.5504 27.4333 45.4704 28.2467 46.1237 29.3C46.7771 30.3533 47.1037 31.5867 47.1037 33C47.1037 34.4133 46.7771 35.6467 46.1237 36.7C45.4704 37.7533 44.5504 38.5667 43.3637 39.14C42.177 39.7133 40.817 40 39.2837 40H32.6637V26ZM39.1237 36.84C40.3237 36.84 41.2837 36.5 42.0037 35.82C42.737 35.14 43.1037 34.2 43.1037 33C43.1037 31.8 42.737 30.86 42.0037 30.18C41.2837 29.5 40.3237 29.16 39.1237 29.16H36.6237V36.84H39.1237Z" fill="#FDAFA4"/>
<path d="M22.4 26H19.8529V29.06H22.094L22.4 26Z" fill="white"/>
<path d="M21.3623 36.3766C21.0853 36.2425 20.8222 36.0902 20.5729 35.92L19.1329 38.9C19.686 39.2444 20.3168 39.5275 21.0251 39.7494L21.3623 36.3766Z" fill="white"/>
<path d="M34.9032 26H32.6637V40L34 40L34.9032 26Z" fill="white"/>
</svg>